# xmcd
#
# Track frame offsets:
#	150
#	115635
#	168361
#
# Disc length: 3388 seconds
#
# Revision: 0
# Processed by: cddbd v1.5.2PL0 Copyright (c) Steve Scherf et al.
# Submitted via: EasyCDDAExtractor 9.0.0.1
#
DISCID=190d3a03
DTITLE=Frank Marino - Shank Hall Milwaukee WI 17-08-01 Disc 2
DYEAR=2001
DGENRE=Hard Rock
TTITLE0=Poppy
TTITLE1=Stories Of A Hero
TTITLE2=Strange Universe
EXTD=
EXTT0=
EXTT1=
EXTT2=
PLAYORDER=
